# xmcd CD database file
#
# Track frame offsets:
#	150
#	20256
#	39256
#	59214
#	76467
#	93939
#	109116
#	124710
#	132229
#	156437
#	181217
#	204518
#	227899
#	251516
#	276166
#	299616
#
# Disc length: 4327 seconds
#
# Revision: 0
# Processed by: cddbd v1.5.1PL0 Copyright (c) Steve Scherf et al.
# Submitted via: CDex 1.51
#
DISCID=e510e510
DTITLE=ZIZZ - Nitro Super Sonic 2005 Live CD
DYEAR=2005
DGENRE=Other
TTITLE0=最狂広報！ジョイまっくすのテーマ
TTITLE1=さめない熱
TTITLE2=RIGHT HERE RIGHT NOW
TTITLE3=I Bless Thy Life
TTITLE4=STILL
TTITLE5=GRIND
TTITLE6=CurriculuMachine
TTITLE7=SEARCH AND DESTROY
TTITLE8=沙耶の唄
TTITLE9=涙尽鈴音響
TTITLE10=MOON TEARS
TTITLE11=WHITE NIGHT
TTITLE12=Shine
TTITLE13=サイン
TTITLE14=Shadow in the dark
TTITLE15=BLAZE UP
EXTD=YEAR: 2005/08/12
EXTT0=
EXTT1=
EXTT2=
EXTT3=
EXTT4=
EXTT5=
EXTT6=
EXTT7=
EXTT8=
EXTT9=
EXTT10=
EXTT11=
EXTT12=
EXTT13=
EXTT14=
EXTT15=
PLAYORDER=
